<?xml version="1.0" encoding="UTF-8" standalone="no"?>
<!-- Created with Inkscape (http://www.inkscape.org/) -->

<svg
   xmlns:dc="http://purl.org/dc/elements/1.1/"
   xmlns:cc="http://creativecommons.org/ns#"
   xmlns:rdf="http://www.w3.org/1999/02/22-rdf-syntax-ns#"
   xmlns:svg="http://www.w3.org/2000/svg"
   xmlns="http://www.w3.org/2000/svg"
   xmlns:xlink="http://www.w3.org/1999/xlink"
   xmlns:sodipodi="http://sodipodi.sourceforge.net/DTD/sodipodi-0.dtd"
   xmlns:inkscape="http://www.inkscape.org/namespaces/inkscape"
   width="553.35712"
   height="393.00003"
   id="svg2"
   version="1.1"
   inkscape:version="0.48.2 r9819"
   sodipodi:docname="gun.svg">
  <defs
     id="defs4"></defs>
  <sodipodi:namedview
     id="base"
     pagecolor="#ffffff"
     bordercolor="#666666"
     borderopacity="1.0"
     inkscape:pageopacity="0.0"
     inkscape:pageshadow="2"
     inkscape:zoom="0.7"
     inkscape:cx="107.25653"
     inkscape:cy="214.93446"
     inkscape:document-units="px"
     inkscape:current-layer="layer1"
     showgrid="false"
     showguides="true"
     inkscape:guide-bbox="true"
     inkscape:window-width="1440"
     inkscape:window-height="852"
     inkscape:window-x="1"
     inkscape:window-y="0"
     inkscape:window-maximized="0"
     fit-margin-top="0"
     fit-margin-left="0"
     fit-margin-right="0"
     fit-margin-bottom="0" />
  <metadata
     id="metadata7">
    <rdf:RDF>
      <cc:Work
         rdf:about="">
        <dc:format>image/svg+xml</dc:format>
        <dc:type
           rdf:resource="http://purl.org/dc/dcmitype/StillImage" />
        <dc:title></dc:title>
      </cc:Work>
    </rdf:RDF>
  </metadata>
  <g
     inkscape:label="Layer 1"
     inkscape:groupmode="layer"
     id="layer1"
     transform="translate(-75.928572,-623.29075)">
    <g
       id="explosion" >
      <path
         sodipodi:nodetypes="ccccccccccccccccccc"
         inkscape:connector-curvature="0"
         id="path3803"
         d="m 207.14286,857.36218 -84.28572,40.71429 31.42857,-83.57143 -77.857138,-44.28571 109.285718,-22.85715 -2.85715,-123.57143 92.14286,60 123.57143,-37.14285 -35.71429,80.71429 120.71429,12.14285 -67.14286,40.71429 54.28572,77.85714 -66.42858,-25.71429 46.42858,58.57143 -98.57143,-27.85714 -49.28572,122.14286 -50.71428,-106.42858 -49.28572,30 z"
         style="fill:#020100;fill-opacity:0.3258427;stroke:#000000;stroke-width:1px;stroke-linecap:butt;stroke-linejoin:miter;stroke-opacity:1" />
      <path
         inkscape:connector-curvature="0"
         id="path3801"
         d="m 219.28571,830.93361 -66.42857,32.14286 43.57143,-64.28572 -80,-22.14285 L 205,763.07647 l -18.57143,-17.85714 37.85714,-2.14286 -13.57142,-80 45.71428,49.28571 7.85714,-12.14285 14.28572,20.71428 67.14286,-47.14286 -31.42858,70.71429 L 425,748.07647 337.85714,777.36218 395,799.50504 l -58.57143,4.28571 59.28572,50 -81.42858,-26.42857 -12.14285,81.42857 -37.85715,-67.85714 -41.42857,22.85714 z"
         style="fill:#fec600;fill-opacity:1;stroke:#000000;stroke-width:1px;stroke-linecap:butt;stroke-linejoin:miter;stroke-opacity:1" />
      <path
         inkscape:connector-curvature="0"
         id="path3031"
         d="m 232.71429,809.6479 -48.57143,25.71428 37.14285,-42.14285 -35.71428,-14.28572 38.57143,-9.28571 -24.28572,-22.14286 33.57143,5 -17.14286,-62.85714 42.14286,47.85714 7.14286,-21.42857 12.14286,24.28571 56.42857,-52.85714 -33.57143,62.85714 43.57143,1.42857 L 317,765.36218 l 14.28571,5.71429 -10.71428,5 45,18.57143 -53.57143,0 45.71429,37.85714 -53.57143,-22.14286 -2.14286,17.85715 -17.14286,-20 4.28572,69.28571 -22.85715,-50.71429 -16.42857,15 0,-19.28571 -21.42857,12.85714 z"
         style="fill:#fe5d00;fill-opacity:1;stroke:#000000;stroke-width:1px;stroke-linecap:butt;stroke-linejoin:miter;stroke-opacity:1" />
    </g>
  </g>
</svg>
